<svg width="19" height="18" viewBox="0 0 19 18" fill="none" xmlns="http://www.w3.org/2000/svg">
<g clip-path="url(#clip0_81:1525)">
<path d="M1.53892 -0.000488281C0.99015 -0.000488281 0.54541 0.444252 0.54541 0.993017V17.0061C0.54541 17.5548 0.99008 17.9996 1.53892 17.9996H10.1598V11.029H7.81411V8.31246H10.1598V6.30895C10.1598 3.98404 11.5797 2.71811 13.6537 2.71811C14.6472 2.71811 15.5011 2.79209 15.7499 2.8252V5.25487L14.3114 5.25557C13.1835 5.25557 12.9651 5.79159 12.9651 6.57811V8.31248H15.6552L15.3049 11.029H12.9651V17.9997H17.552C18.1006 17.9997 18.5454 17.5549 18.5454 17.0062V0.993034C18.5454 0.444269 18.1007 -0.000471413 17.552 -0.000471413H1.53892V-0.000488281Z" fill="white"/>
</g>
<defs>
<clipPath id="clip0_81:1525">
<rect width="18" height="18" fill="white" transform="translate(0.54541)"/>
</clipPath>
</defs>
</svg>
