<svg width="20" height="20" viewBox="0 0 20 20" fill="none" xmlns="http://www.w3.org/2000/svg">
<g clip-path="url(#clip0_134:8)">
<path d="M19.9996 10.061C19.9996 4.5035 15.5221 -0.00149536 9.99957 -0.00149536C4.47457 -0.000245362 -0.00292969 4.5035 -0.00292969 10.0623C-0.00292969 15.0835 3.65457 19.246 8.43457 20.001V12.9698H5.89707V10.0623H8.43707V7.8435C8.43707 5.32225 9.93082 3.92975 12.2146 3.92975C13.3096 3.92975 14.4533 4.126 14.4533 4.126V6.601H13.1921C11.9508 6.601 11.5633 7.37725 11.5633 8.1735V10.061H14.3358L13.8933 12.9685H11.5621V19.9998C16.3421 19.2448 19.9996 15.0823 19.9996 10.061Z" fill="#F5F5F5"/>
</g>
<defs>
<clipPath id="clip0_134:8">
<rect width="20" height="20" fill="white"/>
</clipPath>
</defs>
</svg>
