<svg width="19" height="19" viewBox="0 0 19 19" fill="none" xmlns="http://www.w3.org/2000/svg">
<g clip-path="url(#clip0_81:1544)">
<path d="M9.5 11.875C10.8117 11.875 11.875 10.8117 11.875 9.5C11.875 8.18832 10.8117 7.125 9.5 7.125C8.18832 7.125 7.125 8.18832 7.125 9.5C7.125 10.8117 8.18832 11.875 9.5 11.875Z" stroke="white" stroke-width="2" stroke-linecap="round" stroke-linejoin="round"/>
<path d="M15.3582 11.875C15.2528 12.1138 15.2214 12.3786 15.2679 12.6355C15.3145 12.8923 15.4369 13.1293 15.6194 13.3158L15.6669 13.3633C15.8141 13.5104 15.9309 13.685 16.0106 13.8772C16.0903 14.0694 16.1313 14.2755 16.1313 14.4835C16.1313 14.6916 16.0903 14.8976 16.0106 15.0899C15.9309 15.2821 15.8141 15.4567 15.6669 15.6037C15.5199 15.751 15.3452 15.8677 15.153 15.9474C14.9608 16.0271 14.7548 16.0681 14.5467 16.0681C14.3386 16.0681 14.1326 16.0271 13.9404 15.9474C13.7482 15.8677 13.5736 15.751 13.4265 15.6037L13.379 15.5562C13.1924 15.3737 12.9554 15.2513 12.6986 15.2047C12.4418 15.1582 12.1769 15.1896 11.9382 15.295C11.704 15.3954 11.5043 15.562 11.3637 15.7744C11.223 15.9868 11.1475 16.2357 11.1465 16.4904V16.625C11.1465 17.0449 10.9797 17.4476 10.6828 17.7446C10.3858 18.0415 9.9831 18.2083 9.56317 18.2083C9.14324 18.2083 8.74052 18.0415 8.44358 17.7446C8.14665 17.4476 7.97984 17.0449 7.97984 16.625V16.5537C7.97371 16.2917 7.88889 16.0376 7.73641 15.8244C7.58393 15.6112 7.37084 15.4488 7.12484 15.3583C6.88606 15.2529 6.62118 15.2215 6.36437 15.2681C6.10756 15.3146 5.87058 15.4371 5.684 15.6196L5.6365 15.6671C5.48945 15.8143 5.31483 15.9311 5.12262 16.0108C4.9304 16.0904 4.72437 16.1315 4.5163 16.1315C4.30822 16.1315 4.10219 16.0904 3.90997 16.0108C3.71776 15.9311 3.54314 15.8143 3.39609 15.6671C3.24887 15.52 3.13209 15.3454 3.05241 15.1532C2.97273 14.961 2.93172 14.7549 2.93172 14.5469C2.93172 14.3388 2.97273 14.1328 3.05241 13.9405C3.13209 13.7483 3.24887 13.5737 3.39609 13.4267L3.44359 13.3792C3.6261 13.1926 3.74853 12.9556 3.79509 12.6988C3.84166 12.442 3.81022 12.1771 3.70484 11.9383C3.60448 11.7042 3.43785 11.5045 3.22546 11.3638C3.01306 11.2232 2.76417 11.1477 2.50942 11.1467H2.37484C1.95491 11.1467 1.55218 10.9798 1.25525 10.6829C0.958319 10.386 0.791504 9.98326 0.791504 9.56333C0.791504 9.1434 0.958319 8.74068 1.25525 8.44374C1.55218 8.14681 1.95491 7.98 2.37484 7.98H2.44609C2.70812 7.97387 2.96226 7.88905 3.17545 7.73657C3.38864 7.58409 3.55103 7.371 3.6415 7.125C3.74689 6.88622 3.77832 6.62134 3.73176 6.36453C3.68519 6.10772 3.56276 5.87074 3.38025 5.68416L3.33275 5.63666C3.18554 5.48961 3.06876 5.31499 2.98908 5.12278C2.9094 4.93056 2.86838 4.72453 2.86838 4.51646C2.86838 4.30838 2.9094 4.10235 2.98908 3.91013C3.06876 3.71792 3.18554 3.5433 3.33275 3.39625C3.4798 3.24903 3.65443 3.13225 3.84664 3.05257C4.03885 2.97289 4.24489 2.93188 4.45296 2.93188C4.66104 2.93188 4.86707 2.97289 5.05928 3.05257C5.2515 3.13225 5.42612 3.24903 5.57317 3.39625L5.62067 3.44375C5.80725 3.62626 6.04422 3.74869 6.30104 3.79525C6.55785 3.84182 6.82272 3.81038 7.0615 3.705H7.12484C7.35899 3.60464 7.55868 3.43801 7.69934 3.22562C7.84 3.01322 7.91549 2.76433 7.9165 2.50958V2.375C7.9165 1.95507 8.08332 1.55234 8.38025 1.25541C8.67718 0.958479 9.07991 0.791664 9.49984 0.791664C9.91976 0.791664 10.3225 0.958479 10.6194 1.25541C10.9164 1.55234 11.0832 1.95507 11.0832 2.375V2.44625C11.0842 2.70099 11.1597 2.94989 11.3003 3.16228C11.441 3.37468 11.6407 3.54131 11.8748 3.64166C12.1136 3.74705 12.3785 3.77848 12.6353 3.73192C12.8921 3.68535 13.1291 3.56292 13.3157 3.38041L13.3632 3.33291C13.5102 3.1857 13.6848 3.06892 13.8771 2.98924C14.0693 2.90956 14.2753 2.86854 14.4834 2.86854C14.6915 2.86854 14.8975 2.90956 15.0897 2.98924C15.2819 3.06892 15.4565 3.1857 15.6036 3.33291C15.7508 3.47996 15.8676 3.65459 15.9473 3.8468C16.0269 4.03901 16.068 4.24505 16.068 4.45312C16.068 4.6612 16.0269 4.86723 15.9473 5.05944C15.8676 5.25166 15.7508 5.42628 15.6036 5.57333L15.5561 5.62083C15.3736 5.80741 15.2511 6.04438 15.2046 6.3012C15.158 6.55801 15.1895 6.82288 15.2948 7.06166V7.125C15.3952 7.35915 15.5618 7.55884 15.7742 7.6995C15.9866 7.84016 16.2355 7.91565 16.4903 7.91666H16.6248C17.0448 7.91666 17.4475 8.08348 17.7444 8.38041C18.0414 8.67734 18.2082 9.08007 18.2082 9.5C18.2082 9.91992 18.0414 10.3226 17.7444 10.6196C17.4475 10.9165 17.0448 11.0833 16.6248 11.0833H16.5536C16.2988 11.0843 16.0499 11.1598 15.8376 11.3005C15.6252 11.4412 15.4585 11.6408 15.3582 11.875V11.875Z" stroke="white" stroke-width="2" stroke-linecap="round" stroke-linejoin="round"/>
</g>
<defs>
<clipPath id="clip0_81:1544">
<rect width="19" height="19" fill="white"/>
</clipPath>
</defs>
</svg>
