<svg width="18" height="18" viewBox="0 0 18 18" fill="none" xmlns="http://www.w3.org/2000/svg">
<g clip-path="url(#clip0_81:1521)">
<path d="M14.9702 3.13678C14.4185 3.37866 13.8278 3.54507 13.2053 3.62053C13.8405 3.23944 14.3261 2.63663 14.5577 1.9185C13.9619 2.26538 13.3028 2.51663 12.6021 2.65866C12.0433 2.06053 11.2446 1.68413 10.3582 1.68413C8.65894 1.68413 7.28175 3.06085 7.28175 4.75772C7.28175 5.00194 7.31128 5.23632 7.36237 5.4585C4.80628 5.33897 2.54034 4.11085 1.02487 2.25553C0.758623 2.70741 0.607217 3.23241 0.607217 3.80382C0.607217 4.87303 1.15144 5.81053 1.97409 6.36178C1.47112 6.34725 0.997686 6.20803 0.582842 5.97882V6.01585C0.582842 7.50694 1.64222 8.75007 3.04847 9.03319C2.79206 9.10116 2.51831 9.14053 2.24034 9.14053C2.043 9.14053 1.85456 9.12132 1.66659 9.08663C2.06222 10.3073 3.19472 11.196 4.54472 11.2227C3.49519 12.0454 2.16487 12.5357 0.731436 12.5357C0.487217 12.5357 0.243467 12.524 -0.0012207 12.4944C1.36612 13.3663 2.98003 13.8763 4.72331 13.8763C10.3797 13.8763 13.4707 9.19116 13.4707 5.13366C13.4707 5.00428 13.4707 4.87257 13.4608 4.74038C14.0641 4.31053 14.5863 3.76585 14.9988 3.1485L14.9702 3.13678Z" fill="white"/>
</g>
<defs>
<clipPath id="clip0_81:1521">
<rect width="18" height="18" fill="white"/>
</clipPath>
</defs>
</svg>
