<svg width="25" height="18" viewBox="0 0 25 18" fill="none" xmlns="http://www.w3.org/2000/svg">
<g clip-path="url(#clip0_81:1523)">
<path d="M22.3125 8.02105C22.3125 7.96626 22.3125 7.90401 22.31 7.83179C22.3075 7.63008 22.3025 7.40347 22.2976 7.16192C22.2776 6.46714 22.2428 5.77485 22.188 5.12241C22.1133 4.22344 22.0037 3.47388 21.8543 2.91108C21.6966 2.32376 21.3876 1.78811 20.958 1.35767C20.5284 0.927225 19.9934 0.61707 19.4064 0.458203C18.7017 0.268945 17.3221 0.151904 15.3797 0.0796874C14.4558 0.0448242 13.4672 0.022412 12.4786 0.00996079C12.1324 0.00498032 11.8112 0.00249024 11.5223 0H10.7902C10.5013 0.00249024 10.1801 0.00498032 9.83394 0.00996079C8.84531 0.022412 7.85669 0.0448242 6.93281 0.0796874C4.99043 0.154395 3.60835 0.271435 2.9061 0.458203C2.31891 0.61668 1.78368 0.926704 1.35405 1.35721C0.924422 1.78771 0.615487 2.32357 0.458203 2.91108C0.306299 3.47388 0.199219 4.22344 0.124512 5.12241C0.0697266 5.77485 0.0348632 6.46714 0.0149414 7.16192C0.00747066 7.40347 0.00498043 7.63008 0.0024902 7.83179C0.0024902 7.90401 0 7.96626 0 8.02105V8.1605C0 8.21529 -3.80351e-08 8.27754 0.0024902 8.34976C0.00498043 8.55147 0.0099609 8.77808 0.0149414 9.01963C0.0348632 9.71441 0.0697266 10.4067 0.124512 11.0591C0.199219 11.9581 0.308789 12.7077 0.458203 13.2705C0.776953 14.4633 1.71328 15.4046 2.9061 15.7233C3.60835 15.9126 4.99043 16.0296 6.93281 16.1019C7.85669 16.1367 8.84531 16.1591 9.83394 16.1716C10.1801 16.1766 10.5013 16.1791 10.7902 16.1815H11.5223C11.8112 16.1791 12.1324 16.1766 12.4786 16.1716C13.4672 16.1591 14.4558 16.1367 15.3797 16.1019C17.3221 16.0272 18.7042 15.9101 19.4064 15.7233C20.5992 15.4046 21.5355 14.4658 21.8543 13.2705C22.0062 12.7077 22.1133 11.9581 22.188 11.0591C22.2428 10.4067 22.2776 9.71441 22.2976 9.01963C22.305 8.77808 22.3075 8.55147 22.31 8.34976C22.31 8.27754 22.3125 8.21529 22.3125 8.1605V8.02105V8.02105ZM20.5195 8.15054C20.5195 8.20283 20.5195 8.26011 20.517 8.32735C20.5146 8.52158 20.5096 8.73574 20.5046 8.96734C20.4872 9.62974 20.4523 10.2921 20.4 10.9072C20.3328 11.7091 20.2381 12.3665 20.1211 12.8073C19.9667 13.3825 19.5135 13.8382 18.9407 13.9901C18.4178 14.1296 17.1004 14.2417 15.31 14.3089C14.4035 14.3438 13.4273 14.3662 12.4537 14.3786C12.1125 14.3836 11.7962 14.3861 11.5124 14.3861H10.8001L9.85884 14.3786C8.88516 14.3662 7.91147 14.3438 7.00254 14.3089C5.21206 14.2392 3.89224 14.1296 3.37178 13.9901C2.79902 13.8357 2.3458 13.3825 2.19141 12.8073C2.07437 12.3665 1.97974 11.7091 1.9125 10.9072C1.86021 10.2921 1.82783 9.62974 1.80791 8.96734C1.80044 8.73574 1.79795 8.51909 1.79546 8.32735C1.79546 8.26011 1.79297 8.20034 1.79297 8.15054V8.03101C1.79297 7.97871 1.79297 7.92144 1.79546 7.8542C1.79795 7.65996 1.80293 7.4458 1.80791 7.21421C1.82534 6.55181 1.86021 5.88941 1.9125 5.27432C1.97974 4.47246 2.07437 3.81504 2.19141 3.37427C2.3458 2.79902 2.79902 2.34331 3.37178 2.19141C3.89473 2.05195 5.21206 1.93989 7.00254 1.87266C7.90898 1.83779 8.88516 1.81538 9.85884 1.80293C10.2 1.79795 10.5163 1.79546 10.8001 1.79546H11.5124L12.4537 1.80293C13.4273 1.81538 14.401 1.83779 15.31 1.87266C17.1004 1.94238 18.4203 2.05195 18.9407 2.19141C19.5135 2.3458 19.9667 2.79902 20.1211 3.37427C20.2381 3.81504 20.3328 4.47246 20.4 5.27432C20.4523 5.88941 20.4847 6.55181 20.5046 7.21421C20.5121 7.4458 20.5146 7.66245 20.517 7.8542C20.517 7.92144 20.5195 7.9812 20.5195 8.03101V8.15054ZM8.93994 11.4277L14.7173 8.06587L8.93994 4.75386V11.4277Z" fill="white"/>
</g>
<defs>
<clipPath id="clip0_81:1523">
<rect width="24.5455" height="18" fill="white"/>
</clipPath>
</defs>
</svg>
